<?xml version="1.0" encoding="utf-8"?>
<!-- Generator: Adobe Illustrator 27.8.1, SVG Export Plug-In . SVG Version: 6.00 Build 0)  -->
<svg version="1.1" id="Lager_1" xmlns="http://www.w3.org/2000/svg" xmlns:xlink="http://www.w3.org/1999/xlink" x="0px" y="0px"
	 viewBox="0 0 2936.5 598.3" style="enable-background:new 0 0 2936.5 598.3;" xml:space="preserve">
<style type="text/css">
	.st0{fill:#3F74A1;}
</style>
<g>
	<path class="st0" d="M825.9,342.6l-15.2-41.5H703.2L688,342.6h-56.3l93.2-240.8h64.3L882,342.6H825.9z M757,146.2l-40.1,110.5h79.8
		L757,146.2z"/>
	<path class="st0" d="M897.1,342.6V101.8h126.7c45.9,0,69.3,29.2,69.3,61.4c0,30.3-18.8,50.5-41.5,55.2c25.6,4,46.2,28.9,46.2,59.2
		c0,36.1-24.2,65-70,65H897.1z M948.3,198.5h64.3c17.3,0,28.2-11.2,28.2-26.7c0-14.8-10.8-26.4-28.2-26.4h-64.3L948.3,198.5
		L948.3,198.5z M948.3,298.9h66.1c19.5,0,31.1-11.2,31.1-28.5c0-15.2-10.8-28.2-31.1-28.2h-66.1L948.3,298.9L948.3,298.9z"/>
	<path class="st0" d="M1268.9,342.6l-47.3-86.3h-37.5v86.3h-51.3V101.8h112.6c50.2,0,80.9,32.9,80.9,77.6
		c0,42.6-26.7,65.4-52.7,71.5l54.2,91.7L1268.9,342.6L1268.9,342.6z M1237.9,145.8h-53.8v66.4h53.8c20.6,0,36.1-13,36.1-33.2
		S1258.5,145.8,1237.9,145.8z"/>
	<path class="st0" d="M1475.4,97.8c72.9,0,126,52,126,124.6s-53.1,124.6-126,124.6c-72.6,0-125.6-52-125.6-124.6
		S1402.9,97.8,1475.4,97.8z M1475.4,143.3c-44.4,0-72.9,33.9-72.9,79.1c0,44.8,28.5,79.1,72.9,79.1s73.3-34.3,73.3-79.1
		C1548.7,177.2,1519.9,143.3,1475.4,143.3z"/>
	<path class="st0" d="M1687,342.6l-93.2-240.8h58.5l66.8,185.2l66.4-185.2h58.5l-92.8,240.8H1687z"/>
	<path class="st0" d="M1870.1,342.6V101.8h51.3v240.8H1870.1z"/>
	<path class="st0" d="M2138.7,342.6l-114.8-161.8v161.8h-51.3V101.8h52.7l111.6,156v-156h51.3v240.8L2138.7,342.6L2138.7,342.6z"/>
	<path class="st0" d="M2251,269.7c17,17.7,43.3,32.5,76.5,32.5c28.2,0,41.9-13.4,41.9-27.1c0-18.1-20.9-24.2-48.7-30.7
		c-39.4-9-89.9-19.9-89.9-73.7c0-40.1,34.7-72.6,91.3-72.6c38.3,0,70,11.6,93.9,33.6l-28.5,37.5c-19.5-18.1-45.5-26.4-69-26.4
		c-23.1,0-35.4,10.1-35.4,24.6c0,16.2,20.2,21.3,48,27.8c39.7,9,90.3,20.9,90.3,74.4c0,44-31.4,77.3-96.4,77.3
		c-46.2,0-79.4-15.5-102.2-38.3L2251,269.7z"/>
	<path class="st0" d="M2448.1,222.4c0-74,56-124.6,126.4-124.6c54.9,0,85.6,28.9,102.5,58.9l-44,21.7c-10.1-19.5-31.8-35-58.5-35
		c-41.9,0-73.7,33.6-73.7,79.1s31.8,79.1,73.7,79.1c26.7,0,48.4-15.2,58.5-35l44,21.3c-17.3,30-47.7,59.2-102.5,59.2
		C2504.1,346.9,2448.1,296.4,2448.1,222.4z"/>
	<path class="st0" d="M2876.3,342.6V241.5h-113.7v101.1h-51.3V101.8h51.3v94.6h113.7v-94.6h51.6v240.8H2876.3z"/>
</g>
<g>
	<path class="st0" d="M669.7,508.8v-8.4c-5,6.6-13.6,10.5-23.1,10.5c-11.6,0-25.3-8.8-25.3-27c0-19.1,13.7-26,25.3-26
		c9.7,0,18.3,3.4,23.1,10v-11.3c0-8.3-6.3-13.7-16-13.7c-7.8,0-15.1,3.2-21.3,9.6l-7.2-14.4c8.9-8.8,20.4-12.8,31.8-12.8
		c16.6,0,31.8,7.4,31.8,30.9v52.7h-19.1V508.8z M669.7,479.1c-3.2-4.7-9.2-7.1-15.4-7.1c-7.5,0-13.7,4.6-13.7,12.3
		c0,7.6,6.2,12,13.7,12c6.2,0,12.2-2.4,15.4-7.1V479.1z"/>
	<path class="st0" d="M707.8,508.8V396.1H727v41.6c5.7-8.3,13.9-12.5,22.5-12.5c18.6,0,32.3,16.2,32.3,42.9
		c0,27.2-13.9,42.7-32.3,42.7c-8.8,0-16.7-4.4-22.5-12.3v10.3L707.8,508.8L707.8,508.8z M727,482.7c3.2,5.2,10.3,9.1,16.4,9.1
		c11.2,0,18.6-9.5,18.6-23.7s-7.4-23.8-18.6-23.8c-6.2,0-13.3,4.1-16.4,9.5V482.7z"/>
	<path class="st0" d="M796.2,508.8v-81.6h19.2v11.2c5.1-7.3,14.2-13,23.2-13v21c-1.4-0.3-3.2-0.5-5.3-0.5c-6.3,0-14.8,3.9-18,9.1
		v53.9h-19.1V508.8z"/>
	<path class="st0" d="M845.9,468c0-23.1,14.5-42.7,38.5-42.7c24.1,0,38.6,19.6,38.6,42.7c0,23.3-14.5,42.9-38.6,42.9
		C860.3,510.9,845.9,491.3,845.9,468z M903,468c0-12.7-6.8-23.7-18.7-23.7s-18.6,11-18.6,23.7c0,12.8,6.6,23.8,18.6,23.8
		S903,480.8,903,468z"/>
	<path class="st0" d="M934.7,467.6c0-7.4,5.6-13.7,12.2-13.7s12.1,6.3,12.1,13.7c0,7.3-5.4,13.5-12.1,13.5S934.7,474.9,934.7,467.6z
		"/>
	<path class="st0" d="M994.6,508.8l-29.3-81.6h20.5l19,56.8l19-56.8h20.7l-29.3,81.6H994.6z"/>
	<path class="st0" d="M1051.2,402.4c0-7.1,5.3-12.8,11.5-12.8c6.3,0,11.5,5.7,11.5,12.8c0,7.1-5.1,12.8-11.5,12.8
		C1056.5,415.2,1051.2,409.5,1051.2,402.4z M1053.2,508.8v-81.6h19.2v81.6H1053.2z"/>
	<path class="st0" d="M1140.5,508.8v-49.3c0-11.3-5.3-15.2-13.4-15.2c-7.5,0-13.4,4.7-16.6,9.6v54.9h-19.2v-81.6h19.2v10.6
		c4.7-6.3,13.6-12.7,25.5-12.7c16,0,23.7,10.1,23.7,26v57.6h-19.2V508.8z"/>
	<path class="st0" d="M1180.6,483.2c5.3,5.6,16.1,11.2,25.2,11.2c8.3,0,12.2-3.2,12.2-8.3c0-5.7-6.3-7.8-14.6-9.6
		c-12.5-2.7-28.7-6.1-28.7-25.5c0-13.7,10.7-25.7,29.9-25.7c12.4,0,22.2,4.7,29.3,11.2l-7.5,14.7c-4.4-5.2-12.7-9.5-21.6-9.5
		c-6.9,0-11.5,2.9-11.5,7.6c0,5.1,5.7,6.9,13.9,8.8c12.5,2.7,29.3,6.4,29.3,26.7c0,15-11.3,26.2-31.5,26.2
		c-12.7,0-24.9-4.7-32.6-12.7L1180.6,483.2z"/>
	<path class="st0" d="M1284.6,425.2c14.9,0,24,7.3,28.8,14.9l-12.5,13c-3.5-5.6-8.8-8.8-15.4-8.8c-11.6,0-19.8,9.5-19.8,23.7
		s8.1,23.8,19.8,23.8c6.6,0,11.9-3.4,15.4-8.8l12.5,13c-4.8,7.6-13.9,14.9-28.8,14.9c-22.5,0-38.6-17.7-38.6-42.9
		C1246,442.9,1262.1,425.2,1284.6,425.2z"/>
	<path class="st0" d="M1375.3,508.8v-49.7c0-11.3-5.3-14.9-13.6-14.9c-7.4,0-13.3,4.7-16.6,9.6v54.9h-19.2V396.1h19.2v41.7
		c4.7-6.3,13.7-12.7,25.6-12.7c16,0,23.7,9.8,23.7,25.7v58L1375.3,508.8L1375.3,508.8z"/>
	<path class="st0" d="M1449.6,540.9V394.3h32.6v14.4h-18.9v117.9h18.9V541L1449.6,540.9L1449.6,540.9z"/>
	<path class="st0" d="M1527.9,477.1v-18.2h36.2v18.2H1527.9z"/>
	<path class="st0" d="M1597,508.8l-29.3-81.6h20.5l19,56.8l19-56.8h20.7l-29.3,81.6H1597z"/>
	<path class="st0" d="M1653.6,402.4c0-7.1,5.3-12.8,11.5-12.8c6.3,0,11.5,5.7,11.5,12.8c0,7.1-5.1,12.8-11.5,12.8
		C1658.9,415.2,1653.6,409.5,1653.6,402.4z M1655.6,508.8v-81.6h19.2v81.6H1655.6z"/>
	<path class="st0" d="M1742.9,508.8v-49.3c0-11.3-5.3-15.2-13.4-15.2c-7.5,0-13.4,4.7-16.6,9.6v54.9h-19.2v-81.6h19.2v10.6
		c4.7-6.3,13.6-12.7,25.5-12.7c16,0,23.7,10.1,23.7,26v57.6h-19.2V508.8z"/>
	<path class="st0" d="M1785,414.9h-13.4l20.2-24.3h17.7L1785,414.9z"/>
	<path class="st0" d="M1812,525.7v-14.4h9.2c5.1,0,9.5-5.1,9.5-12.7V406c0-16.7,11.2-27,23.2-27h9.2v14.4h-9.2
		c-5.1,0-9.4,4.9-9.4,12.5v92.9c0,16.7-11.3,26.9-23.4,26.9H1812z"/>
	<path class="st0" d="M1906.9,540.9v-14.4h18.9V408.6h-18.9v-14.4h32.6v146.7H1906.9z"/>
	<path class="st0" d="M1994.4,468c0-11.2,8-20.1,18-20.1s18,9,18,20.1c0,11-8,19.9-18,19.9S1994.4,478.9,1994.4,468z"/>
	<path class="st0" d="M2087.3,508.8V396.1h19.2v112.7H2087.3z"/>
	<path class="st0" d="M2123.6,402.4c0-7.1,5.3-12.8,11.5-12.8c6.3,0,11.5,5.7,11.5,12.8c0,7.1-5.1,12.8-11.5,12.8
		C2128.8,415.2,2123.6,409.5,2123.6,402.4z M2125.5,508.8v-81.6h19.2v81.6H2125.5z"/>
	<path class="st0" d="M2165.6,483.2c5.3,5.6,16.1,11.2,25.2,11.2c8.3,0,12.2-3.2,12.2-8.3c0-5.7-6.3-7.8-14.6-9.6
		c-12.5-2.7-28.7-6.1-28.7-25.5c0-13.7,10.7-25.7,29.9-25.7c12.4,0,22.2,4.7,29.3,11.2l-7.5,14.7c-4.4-5.2-12.7-9.5-21.6-9.5
		c-6.9,0-11.5,2.9-11.5,7.6c0,5.1,5.7,6.9,13.9,8.8c12.5,2.7,29.3,6.4,29.3,26.7c0,15-11.3,26.2-31.5,26.2
		c-12.7,0-24.9-4.7-32.6-12.7L2165.6,483.2z"/>
	<path class="st0" d="M2239.4,488.6V446h-12.1v-18.8h12.1v-22.3h19.3v22.3h14.8V446h-14.8v36.8c0,5.1,2.4,9,6.6,9
		c2.9,0,5.6-1.2,6.6-2.4l4.1,16.2c-2.9,2.9-8,5.2-16,5.2C2246.7,510.9,2239.4,503.1,2239.4,488.6z"/>
	<path class="st0" d="M2284.7,402.4c0-7.1,5.3-12.8,11.5-12.8c6.3,0,11.5,5.7,11.5,12.8c0,7.1-5.1,12.8-11.5,12.8
		C2290,415.2,2284.7,409.5,2284.7,402.4z M2286.6,508.8v-81.6h19.2v81.6H2286.6z"/>
	<path class="st0" d="M2331.9,514.2c5.9,7.3,13.6,10.1,22.8,10.1s20.1-4.6,20.1-20.6v-8.3c-5.7,8.1-13.6,12.8-22.5,12.8
		c-18.3,0-32.1-14.4-32.1-41.6c0-26.7,13.7-41.6,32.1-41.6c8.8,0,16.6,4.2,22.5,12.5V427h19.3v76c0,31.1-21.4,38.7-39.4,38.7
		c-12.5,0-22.3-3.2-31.4-12.2L2331.9,514.2z M2374.7,453.6c-3.2-5.4-10.1-9.3-16.4-9.3c-10.9,0-18.4,8.4-18.4,22.5
		s7.5,22.5,18.4,22.5c6.3,0,13.3-4.1,16.4-9.3V453.6z"/>
	<path class="st0" d="M2451.7,508.8V396.1h19.2v112.7H2451.7z"/>
	<path class="st0" d="M2485.2,468c0-23.1,14.5-42.7,38.5-42.7c24.1,0,38.6,19.6,38.6,42.7c0,23.3-14.5,42.9-38.6,42.9
		C2499.7,510.9,2485.2,491.3,2485.2,468z M2497.5,403.6c0-6.3,4.5-11.3,10.3-11.3c5.6,0,10.1,5.1,10.1,11.3
		c0,6.4-4.5,11.5-10.1,11.5C2502.1,415.1,2497.5,410,2497.5,403.6z M2542.4,468c0-12.7-6.8-23.7-18.7-23.7s-18.6,11-18.6,23.7
		c0,12.8,6.6,23.8,18.6,23.8S2542.4,480.8,2542.4,468z M2529.4,403.6c0-6.3,4.7-11.3,10.3-11.3s10.3,5.1,10.3,11.3
		c0,6.4-4.7,11.5-10.3,11.5S2529.4,410,2529.4,403.6z"/>
	<path class="st0" d="M2578.4,483.2c5.3,5.6,16.1,11.2,25.2,11.2c8.3,0,12.2-3.2,12.2-8.3c0-5.7-6.3-7.8-14.6-9.6
		c-12.5-2.7-28.7-6.1-28.7-25.5c0-13.7,10.7-25.7,29.9-25.7c12.4,0,22.2,4.7,29.3,11.2l-7.5,14.7c-4.4-5.2-12.7-9.5-21.6-9.5
		c-6.9,0-11.5,2.9-11.5,7.6c0,5.1,5.7,6.9,13.9,8.8c12.5,2.7,29.3,6.4,29.3,26.7c0,15-11.3,26.2-31.5,26.2
		c-12.7,0-24.9-4.7-32.6-12.7L2578.4,483.2z"/>
	<path class="st0" d="M2697.6,508.8v-49.3c0-11.3-5.3-15.2-13.4-15.2c-7.5,0-13.4,4.7-16.6,9.6v54.9h-19.2v-81.6h19.2v10.6
		c4.7-6.3,13.6-12.7,25.5-12.7c16,0,23.7,10.1,23.7,26v57.6h-19.2V508.8z"/>
	<path class="st0" d="M2733.8,402.4c0-7.1,5.3-12.8,11.5-12.8c6.3,0,11.5,5.7,11.5,12.8c0,7.1-5.1,12.8-11.5,12.8
		C2739.1,415.2,2733.8,409.5,2733.8,402.4z M2735.8,508.8v-81.6h19.2v81.6H2735.8z"/>
	<path class="st0" d="M2823.1,508.8v-49.3c0-11.3-5.3-15.2-13.4-15.2c-7.5,0-13.4,4.7-16.6,9.6v54.9h-19.2v-81.6h19.2v10.6
		c4.7-6.3,13.6-12.7,25.5-12.7c16,0,23.7,10.1,23.7,26v57.6h-19.2V508.8z"/>
	<path class="st0" d="M2868.4,514.2c5.9,7.3,13.6,10.1,22.8,10.1s20.1-4.6,20.1-20.6v-8.3c-5.7,8.1-13.6,12.8-22.5,12.8
		c-18.3,0-32.1-14.4-32.1-41.6c0-26.7,13.7-41.6,32.1-41.6c8.8,0,16.6,4.2,22.5,12.5V427h19.3v76c0,31.1-21.4,38.7-39.4,38.7
		c-12.5,0-22.3-3.2-31.4-12.2L2868.4,514.2z M2911.2,453.6c-3.2-5.4-10.1-9.3-16.4-9.3c-10.9,0-18.4,8.4-18.4,22.5
		s7.5,22.5,18.4,22.5c6.3,0,13.3-4.1,16.4-9.3V453.6z"/>
</g>
<g>
	<path class="st0" d="M355.6,462.5c0,0.9,0,1.9,0.2,2.9c0.8,7,0,13.6,0.8,15.9s4.3,17.4,4.3,17.4s-2.7,10.5-2.7,12.8
		c0,2.3-0.4,8.9-1.2,12.4c-0.1,4.4,0.2,8.9,0.3,13.3c1.2,0.2,2.3,0.2,3.5,0.2c0.2,0,0.5,0,0.7,0c1.5,0,3-0.1,4.5-0.2
		c-0.6,1.9-0.6,3.9,0.4,5.8c0.1,0.1,0.1,0.1,0.1,0.2c0.4,1,0.6,2,0.4,3l33.4-7.8c0-0.2,0-0.4-0.1-0.6c-0.1-0.2-0.1-0.4-0.2-0.6
		c1.6,0,3.3,0,4.9,0.1l0.8-0.2c0-2.8,0.2-5.8,0-7.6c-0.4-4.9,1.2-16.6,1.2-19c0-2.4-0.4-8.4-1.2-18c-0.7-9.6-1.5-20.8-1.5-20.8
		s0.4-7.9,0.8-14.6L355.6,462.5z"/>
	<path class="st0" d="M360.9,544.9c-0.2-0.4-0.4-0.9-0.5-1.4c-1.3,0-2.5-0.1-3.6-0.2l-5.2-0.7l-0.1-5.2c-0.1-1.6-0.1-3.2-0.2-4.9
		c-0.1-2.8-0.2-5.6-0.1-8.6v-0.6l0.1-0.5c0.6-2.8,1-8.9,1-11.1c0-2.3,1.3-7.9,2.5-12.8c-1.6-6.9-3.4-14.2-3.8-15.4
		c-0.7-2.1-0.7-4.6-0.7-8.1c0-2.7,0-5.8-0.3-9c-0.1-1.1-0.1-2.2-0.1-3.3l-18.6,2c-0.9,2.7-1.6,5.3-1.7,7.3
		c-0.4,5.1-2.2,8.6-3.6,11.4c-0.9,1.7-1.6,3.1-2.1,4.9c-1.4,5.4-2.8,16.8-2.5,23.3c0.4,8.4-2.3,11.6-5.9,14c0,1.5,0,4.1,0.1,8.7
		l0.1,4.1l-1.9,0.8c0.3,1.4,0.3,3,0,4.5c-0.1,0.6-0.2,1.2-0.4,1.7l1,5c0,0.2,0.1,0.5,0.1,0.7c0.1,0.5,0.2,1,0.3,1.5
		c0.2,1.4,0.4,3.3,0.3,5.2l44.7-10.4l0.1-0.2L360.9,544.9z"/>
	<path class="st0" d="M308.9,558.2c0.2-1.5,0.1-3.2-0.2-4.7c-0.1-0.6-0.3-1.3-0.4-2c-0.1,0.1-0.1,0.2-0.1,0.3
		c-0.6-1.3-1.6-2.5-1.8-4c-0.1-0.6,0.1-1.3,0.3-1.9c0.3-1.1,0.8-2.2,1-3.4c0.1-0.7,0.1-1.5-0.1-2.1c-0.5-1.6-1.1-3.3-1.8-4.9
		c0.4-0.3,0.8-0.4,1.3-0.5c0.3,0,0.5-0.1,0.8-0.1c0.5-0.1,1-0.3,1.4-0.5c-0.2-6.4-0.2-12,0.4-12.4c3.5-2.3,5.8-2.7,5.4-10.1
		c-0.4-7.4,1.2-19.4,2.7-25.2c1.5-5.8,5-8.5,5.4-15.1c0.1-1.7,0.5-3.7,1-5.7l-26.3,2.9v93.5l11-2.6c0,0,0,0,0,0
		C308.7,559.2,308.8,558.7,308.9,558.2z"/>
	<path class="st0" d="M411.7,456.4c-0.3,5.7-0.7,12.9-0.8,15.5c0.1,2,0.8,11.9,1.5,20.4c0.8,9.9,1.2,16,1.2,18.5
		c0,1-0.1,2.6-0.4,5.5c-0.4,3.8-1,10.2-0.8,12.9c0.2,1.3,0.1,3.1,0.1,5c0,0.4,0,0.9,0,1.3L530.4,508v-64.5L411.7,456.4z"/>
</g>
<g>
	<path class="st0" d="M336.5,438.6c-0.2,0.9-0.4,2.2-0.7,3.7l12.3-1c-0.1-0.2-0.1-0.4-0.2-0.6c-0.9-3.1-0.9-7.6-0.9-14.1
		c0-2.3,0-4.8-0.1-6c-0.5-4.7-1.8-6.4-2.2-6.8c-1.5-1.5-2.7-3.8-3.5-6c-0.8,3.5-1.8,6.6-2.8,8.5c-0.3,0.5-1.6,3.7-1.2,16
		c0,0.5,0,0.8,0,1C337.3,434.2,337.2,435.1,336.5,438.6z"/>
	<path class="st0" d="M298.1,445.2l31-2.4c0.8-4.6,1.8-9.3,1.8-10c0-1.2-0.8-14.7,1.9-19.8c2.7-5,5.4-24,5.4-24l7,11.2
		c0,0,1.2,6.6,3.5,8.9c2.3,2.4,3.5,6.2,3.9,10.5c0.4,4.3-0.4,15.1,0.8,19c0.2,0.7,0.5,1.4,0.7,2.3l47.8-3.7c-0.6-2.1-1-3.7-0.7-4.3
		c0.8-1.5-1.2-15.1,0-20.5c1.2-5.4,2.8-11.6,1.6-14.7c-1.2-3.1-2-7.3-1.6-11.2c0.4-3.9,1.9-8.1,0-14.7c-1.8-6-2.2-11.6-3.2-15.5
		l-99.9-4.7V445.2z"/>
	<path class="st0" d="M404.8,356.6c0.2,1.2,0.5,2.6,0.7,4c0.5,3,1,6.3,2,9.7c1.9,6.5,1.1,11.3,0.5,14.8c-0.1,0.8-0.2,1.6-0.3,2.3
		c-0.4,3,0.4,6.3,1.2,8.5c1.7,4.5,0.4,10.4-1,16.7l-0.3,1.4c-0.5,2.2-0.1,7.9,0.1,11.7c0.3,4.1,0.4,6.5,0.1,8.3
		c0.1,0.6,0.4,1.6,0.8,2.6l121.8-9.4v-64.7L404.8,356.6z"/>
</g>
<g>
	<path class="st0" d="M410,263.1c0,0,9.1-2.7,10.1-3.9l-122-24.7v93.7l103.1,8v-2c0,0-1.5-2.7-2.3-7s-0.8-9.3-0.8-13.6
		s-0.4-8.1-0.4-9.3s-1.2-18.2-1.2-19.4c0-1.2,4.6-14.4,4.6-14.4L410,263.1z"/>
	<path class="st0" d="M427.8,260.8c-1,0.9-1.8,1.7-2.2,2.1c-0.9,1.4-2.5,2.8-12,5.7l-6.7,5.5c-1.6,4.6-3.2,9.6-3.7,11.3
		c0,1.5,0.3,5.7,0.5,8.8c0.5,7.2,0.6,9.4,0.6,10.1c0,0.2,0.1,1,0.1,1.7c0.1,1.8,0.3,4.6,0.3,7.6c0,4.1,0,8.8,0.7,12.5
		c0.5,3,1.5,5,1.6,5.2l0.8,1.3v1.6v2.5l122.6,9.6v-64.7L427.8,260.8z"/>
</g>
<g>
	<path class="st0" d="M298.1,117.4v15.8c0.4,0.4,0.8,0.8,1.1,1.1c1.3,1.1,1.3,1.1,1.3,1.1s-0.8,2.2-0.8,3.7s2.1,4.6,3.1,6.1
		c1,1.6,2.6,3.6,4.4,3.9c1.8,0.3,1.8,0.3,1.8,0.3l2.1,2.8c0,0,0.8,2.6,1.3,4.1c0.5,1.6,1.3,3.1,1.3,3.1s-2.4,0.6-2.1,2.1
		c0.2,1.6,0.5,6.5,0.5,6.5s-3.9,1.8-7.8,4.9c-1.1,0.9-3.4,2.2-6.2,3.7v34.5l129.4,30.3c-0.2-1.7-0.4-3.1-0.4-3.5
		c0-1.2-2.3-5.1-2.3-5.1l-4.3-6.2l8.5-26.4l2.7-9.7c0,0-10.8-9.5-18.3-9.5c-0.7,0-1.3,0-1.9,0.2l-2.3,14c-2-2.6-4.9-16.5-11.6-19.9
		c-6.8-3.4-12.2-5.2-12.2-5.2h-8.8l-5.2-2.8l-8.3-1.8c0,0-3.1-3.6-3.4-4.4c-0.3-0.7,0-7.2,0-7.2h-2.6c0,0,2.4-7.2,2.1-8
		c-0.3-0.8-2.1-3.9-2.1-3.9l-1.3-3.4c0,0,0.2-0.1,0.4-0.3L298.1,117.4z"/>
	<path class="st0" d="M363.4,140.8c1.1,2,1.3,2.7,1.4,3.1c0.3,1,0.5,1.8,0.1,3.9h0.9l-0.2,6.2c-0.1,1.6-0.1,3.7-0.1,5
		c0.3,0.3,0.5,0.7,0.8,1l6.3,1.4l0.8,0.2l0.8,0.4l3.8,2.1h8.1h1l0.9,0.3c0.3,0.1,6,2,13,5.5c2.7,1.4,4.9,3.7,6.7,6.3l3-0.8
		c1.1-0.3,2.2-0.4,3.4-0.4c9.3,0,20.1,9.2,22.2,11l2.8,2.5l-1,3.6l-2.7,9.7v0.1v0.1l-7.6,23.6l2.6,3.8l0.1,0.2l0.1,0.2
		c3,5,3.2,7,3.2,8c0.1,0.6,0.3,2.7,0.7,5.2l95.9,22.4v-64.6L363.4,140.8z"/>
	<path class="st0" d="M305.6,165c-0.1-1-0.1-1.8-0.2-2.1c-0.3-1.7,0-3.4,0.8-4.8c-0.3-0.9-0.7-2-0.9-2.8c-3.4-0.8-5.6-3.3-7.2-5.5
		v20.3c1-0.6,1.8-1.1,2.2-1.4C302.2,167.2,304.1,165.9,305.6,165z"/>
</g>
<g>
	<path class="st0" d="M334.3,85.2c-3.3-1-6.6-1.4-9.9-1.4c-10.7,0-20.3,4.5-23.5,11.3l59.6,23.2l0.4-0.4
		C360.9,118,349,89.3,334.3,85.2z"/>
	<path class="st0" d="M298.2,0.4v88c5.6-6.5,15.2-10.6,26.2-10.6c3.9,0,7.8,0.5,11.6,1.5c17,4.8,29.2,33.1,30.5,36.3l1.7,4.2
		l-1.4,1.1l163.6,63.7v-64.7L298.2,0.4z"/>
</g>
<path class="st0" d="M271.9,545.6c-0.1,2-0.7,4-1.4,6c-0.5,1.2-0.8,2.6-1.1,3.9c-0.3,1.3-0.7,2.5-1.1,3.7l12.8,3v-93.6l-4.8-0.5
	c-0.3,1.5-0.5,2.9-0.5,4c-0.4,4.7-3.1,9.7-3.5,14c-0.4,4.2-1.5,19.8-2.3,22.5s-3.1,7.7-3.5,12c-0.1,1-0.4,2-0.7,3
	c0.4,0.9,0.5,2,0.4,3.2c0.3,1.3,1.5,3.3,2.4,5.2c0.7,0,1.4,0.3,1.8,1.2c0.8,1.7,2.2,2.7,3.9,3.3c-0.2,0.8-0.5,1.6-0.9,2.4
	C272.8,541.1,272,543.3,271.9,545.6z"/>
<path class="st0" d="M281.3,403.6c-1.4,4.7-2.6,9.2-2.4,11.1c0.3,4.7-0.8,12.4-1.2,20.2c-0.2,3.3,0,6.8,0.1,10l3.5,0.3V403.6z"/>
<g>
	<path class="st0" d="M273.6,315.8c2.5,0,5.1,0,7.9-0.1v-81.2l-16.8,3.4l-9.3,77.1C255.4,315,262.9,315.8,273.6,315.8z"/>
	<path class="st0" d="M281.5,328.2v-7.5c-1.2,2.5-2.5,5.5-3.3,7.7L281.5,328.2z"/>
</g>
<path class="st0" d="M281.3,185.5c-0.7,0.5-1.2,0.8-1.3,1.1c-1.1,1.8-2.3,7.2-2.6,10.3c-0.3,3.1-1.5,9.1-1.8,10.6
	c-0.3,1.6,0,2.4,0,3.4c0,0.2,0.1,0.7,0.1,1.5l5.6-1.3V185.5z"/>
<g>
	<path class="st0" d="M142.5,518c-0.2-1.5,1.3-20.4,0.7-25.3c-0.6-4.9,0.4-15.8,0.4-15.8s3.3-14.5,3.4-15.1c0.3-1.8,0.4-4.8,0.5-7.8
		l-38.4-4.2c-1.8,6.9-4.8,19.8-5.6,23.5c-0.9,4-6.7,34.9-8.7,45.3l45.9,10.7C141.8,524.5,142.6,518.6,142.5,518z"/>
	<path class="st0" d="M206.5,460.5l-46-5c-0.4,2.3-0.8,4.7-0.6,6.6c0.4,4.2-1,10.7-1,14.2s2,9.3,2,13.2c0,3.9-2.4,13.4-2.4,13.4
		l0.2,29.7c0,0,0.3,0.4,0.6,1.1l5.9,1.4c0.3-0.1,0.6-0.1,0.9-0.2c0,0.1,0,0.3,0.1,0.4l36.9,8.6c0,0,0-0.1,0-0.1
		c-0.5-1.7-0.8-3.4-1-5.2c-0.1-1.5-0.3-3-0.9-4.4c-0.1-0.3-0.2-0.5-0.2-0.8c1.1,0.1,2.3,0.4,3.3,1.1l0.1,0.1
		c0.6-0.6,1.2-1.2,1.8-1.7c0.4-0.6,0.8-1.1,1.2-1.7l0.9-6.6c0,0,2.3-3,2.3-4.2c0-1.1-1.1-27.7-2.3-27.7c-1.1,0-1.5-9.2-1.5-9.2
		s-2-14.3-1.2-17.8C205.8,464.5,206.2,462.7,206.5,460.5z"/>
	<path class="st0" d="M93.3,495.1c2-10.6,3.9-20.6,4.4-22.8c0.8-3.2,3.7-15.7,5.6-23.1L0.4,438v58.5l88.7,20.8
		C90,512.3,91.8,503,93.3,495.1z"/>
	<path class="st0" d="M213.4,461.2c-0.3,2-0.7,4.1-1.2,6.4c-0.3,1.9,0.4,9.7,1.2,15.8v0.3v0.3c0.1,2.2,0.3,4.7,0.5,6
		c0.6,0.8,1.1,1.9,1.4,3.4c0.2,0.8,0.3,2,0.5,3.5c0.3,2.3,0.5,5.5,0.8,9.5c0.4,6.9,0.7,13.9,0.7,14.7c0,0.9,0,2.8-2.5,6.5l-0.7,5.1
		l-0.2,1.4l-0.8,1.2c-0.5,0.6-0.9,1.3-1.4,1.9l-0.4,0.5l-0.5,0.4c-0.4,0.3-0.9,0.8-1.4,1.3l-0.5,0.5c0.2,1,0.4,1.8,0.6,2.5
		c0.4,1.1,0.7,2.2,1,3.3l52,12.2c0.3-0.9,0.7-2.1,1-3.4c0.1-0.2,0.1-0.5,0.2-0.8c0.2-1.1,0.6-2.3,1-3.6c0.4-1.3,0.9-2.9,1-4.3
		c0.1-2.4,0.7-4.5,1.2-6.4c-0.3-0.3-0.6-0.6-0.8-0.9h-1.6l-1.7-3.5c-0.3-0.5-0.6-1.1-0.9-1.7c-0.8-1.6-1.6-3.1-2-4.6l-0.3-1.1
		l0.1-1.1c0-0.1,0-0.1,0-0.2l-0.9-2.1l0.7-2.1c0.3-0.9,0.4-1.4,0.4-1.6c0.4-3.8,1.8-7.8,2.9-10.7c0.3-0.9,0.6-1.8,0.8-2.4
		c0.5-2,1.4-12.8,1.8-17.4c0.1-1.7,0.2-3.1,0.3-4c0.3-2.8,1.2-5.4,2-8c0.6-2.1,1.4-4.2,1.5-5.9c0.1-1.3,0.4-3,0.7-4.7L213.4,461.2z"
		/>
	<path class="st0" d="M152.9,503.3v-0.8l0.2-0.7c0.9-3.7,2.2-9.8,2.2-12c0-1.4-0.5-3.7-0.9-5.7c-0.6-2.7-1.1-5.2-1.1-7.5
		c0-1.8,0.2-3.9,0.5-6.1c0.3-2.7,0.7-5.7,0.5-7.6c-0.2-2.6,0.2-5.4,0.7-8.1l-1-0.1c0,0.5,0,0.9-0.1,1.3c-0.1,2.6-0.1,5.1-0.5,7.1
		c-0.1,0.6-1.9,8.4-3.4,15c-0.4,4-0.8,11.1-0.4,14.1c0.4,3.4,0.1,10.5-0.4,19.4c-0.2,2.5-0.3,5.1-0.3,6.1c0.3,2.2-1.1,9.6-2,13.1
		l6.2,1.4L152.9,503.3z"/>
</g>
<g>
	<path class="st0" d="M125.3,361.3l-1.8,18.4c0,0-10.3,33.7-10.3,35.2c0,0.8-0.6,9.2-1.4,17.1l41.8,3.2c2.1-6,3.9-12.9,3.9-12.9
		s6.2-10,8.5-16.8c-1.4,7.6-4.3,23.6-4.6,24.4c-0.2,0.5-0.1,2.9,0.1,5.9l44.5,3.5c0.2-10.6,3.4-28.8,3.4-28.8s5.4-15.5,5.8-16.7
		c0.4-1.2,5-21.7,5-22.9c0-0.6-0.7-8.6-1.3-16.5l-93.3,4.4C125.5,360.2,125.3,361.3,125.3,361.3z"/>
	<path class="st0" d="M278.9,382.5c0-0.8,0.1-1.7,0.2-3c0.3-2.8,0.9-8.6,0-11.7c-1.3-4.4-1.3-7-1.3-9.4c0-1,0-1.9-0.1-2.9
		c-0.1-1.3-0.1-2.5-0.1-3.7l-51.9,2.4c0.4,4.7,0.8,9.5,1,12c0.4,4.5,0.4,5.1,0.4,5.6c0,0.7,0,1.4-2.5,12.7c-0.8,3.9-2.4,10.6-2.8,12
		c-0.4,1.1-4.7,13.4-5.7,16.3c-1.7,9.6-3,20.7-3.2,27.1l58.3,4.5c-0.2-3-0.2-6.3-0.1-9.4c0.2-3.1,0.4-6,0.7-8.9
		c0.4-4.2,0.7-8.1,0.5-10.5c-0.4-4.9,4-18.1,6.9-26.2C279.1,387.5,278.9,384.1,278.9,382.5z"/>
	<path class="st0" d="M107.4,415.1c0-1.1,0.1-2.9,10.4-36.3l1.8-17.8v-0.1v-0.1c0.1-0.5,0.1-1.1,0.2-1.6L0.5,364.8v58.6l105.6,8.2
		C106.7,424.4,107.3,416.6,107.4,415.1z"/>
</g>
<g>
	<path class="st0" d="M273.3,322.1c-10.9,0-18.5-0.8-18.8-0.8l-6.1-0.6l0.7-6.1l9.1-75.4l-11.5,2.3c-5.6,20.3-13,47.9-16,64.7
		l-0.8,4.7l-4.8,0.2l-2.1,0.1v0.1l0.5,1l0.1,1.1c0.8,8.9,1.3,15,1.5,19.1l46.4-3.6c0.5-1.8,1.3-4.1,2.5-6.9
		C273.8,322.1,273.5,322.1,273.3,322.1z"/>
	<path class="st0" d="M238.9,243.2l-127.9,26l12.4,8.2l1.8,3.4l-6.7,22.2c0,0-2.4,13.2-2.9,15.5c-0.5,2.3,1.3,13.7,1.3,13.7
		s4.8,5.9,6.6,8.5l95-7.4c-0.4-7.7-1.5-19.9-1.5-19.9l-3.9-8.2l11-0.6C226.8,288.4,233.4,263.2,238.9,243.2z"/>
	<path class="st0" d="M112.4,336.2l-1-1.3l-0.3-1.6c-0.5-3.1-2-12.5-1.2-16c0.4-1.6,1.9-10,2.8-15.2l0.1-0.3l0.1-0.3l6-19.8
		l-13.9-9.2l-1.9-1.2l-0.1-0.5L0.4,291.6v58.6l115.9-9.1C115.1,339.6,113.7,337.8,112.4,336.2z"/>
</g>
<g>
	<path class="st0" d="M143,167.1c0,0.7,0,1.1,0,1.1s-14.1,5.7-16.7,7c-2.6,1.3-17.1,10.1-17.1,10.1s-4.7,11.9-5.7,14.7
		c-1,2.9-3.3,8.8-2.8,15.8s1.3,22.5,1.3,26.1c0,1.5,1,6,2.2,10.8l141.3-33.2c1.2-4.1,1.9-6.8,2-7.2c-2.3-2.9-10.4-3.4-11.2-3.4
		c-0.7,0-5.9,0-5.9,0s2.1-2.3,0-7.5c-2-5.1-12.9-18.9-14.7-20.4c-1.8-1.6-3.1-2.6-8.3-3.4c-5.2-0.7-17-2.8-18.6-2.8
		c-1.6,0-2.1-2.3-2.1-2.3v-1.8c0,0,5.4-0.8,7.5-2.1c2.1-1.3,6.3-3.9,6.5-4.9c0.3-1,2.9-10.3,2.9-11.1c0-0.7,1.3-2.3,1.3-2.3
		l-0.2-4.4c0,0,1.1-0.7,2.4-1.8L143,167.1z"/>
	<path class="st0" d="M216.7,140.6c-0.8,3.5-3.5,6.3-5.8,8.3l0.1,1.1l0.8,3.1l-1.5,1.8c0,0-0.1,0-0.1,0.1c-0.2,1.3-0.9,3.8-2.4,9.4
		c-0.2,0.8-0.3,1.4-0.4,1.6c-0.5,2.1-1.8,3.6-4.6,5.6c2.5,0.4,4.8,0.8,6.4,1c6.4,1,8.7,2.6,11.3,4.8c2.3,1.9,13.9,16.4,16.4,22.7
		c0.5,1.3,0.9,2.5,1.1,3.7c2.5,0.1,11.3,0.8,15.1,5.5l1.8,2.2l-0.6,2.8c-0.1,0.4-0.3,1.1-0.9,3.3l16.1-3.8c-0.2-2-0.2-2.4-0.2-2.6
		c0-0.1,0-0.3,0-0.5c-0.1-0.9-0.2-2.1,0.1-3.9c0-0.5,0.2-1.2,0.4-2.3c0.4-2.2,1.1-5.9,1.3-7.8c0.3-3.3,1.7-9.8,3.4-12.8
		c0.9-1.6,2.3-2.7,6.8-5.1v-61.5L216.7,140.6z"/>
	<path class="st0" d="M96.3,242.2c0-3.4-0.8-18.8-1.3-25.7c-0.6-8,1.8-14.7,3-17.9l0.1-0.4c1-2.9,5.5-14.4,5.7-14.9l0.7-1.9l1.4-0.9
		L0,218.6v58.5L98.6,254C97.3,248.8,96.3,244.1,96.3,242.2z"/>
</g>
<g>
	<path class="st0" d="M209.9,116.7c0,0,4.2-26.7-19.6-34.7c-3.8-1.3-7.5-1.8-11-1.8c-18,0-30.3,14.4-30.3,14.4s-3.6,10.6-3.9,13.4
		c-0.3,2.9,0,9.6,0,9.6s-0.5,1-1.3,1c-0.1,0-0.3,0-0.4,0c-0.6,0-0.9,0.2,0.4,2.1c1.5,2.4,4.9,4.7,4.9,4.7s0.8,2.1,0.8,3.1
		c0,1.1,0.3,5.7,0.3,7.8c0,2,0.2,5.4,1,7.2c0.2,0.5,0.4,1,0.7,1.4l64.1-25C212.6,118,209.9,116.7,209.9,116.7z"/>
	<path class="st0" d="M0.4,145v58.9L146,147c-0.2-0.4-0.3-0.8-0.5-1.1c-1.4-3.3-1.5-8.2-1.5-9.6c0-1.1-0.1-3.2-0.2-4.8
		c-0.1-1.1-0.1-1.9-0.1-2.5c-1.5-1.1-3.4-2.9-4.7-4.8c-0.9-1.4-3-4.6-1.1-8.1c0.3-0.7,0.8-1.2,1.3-1.7c-0.1-2.2-0.1-5,0.1-6.7
		c0.3-3.2,3-11.4,4.2-14.8l0.4-1.1l0.7-0.9c0.6-0.7,14.2-16.7,34.7-16.7c4.3,0,8.6,0.7,12.9,2.3c11.7,3.9,19.5,12.4,22.6,24.5
		c1.2,4.8,1.4,9.2,1.3,12.3c1.1,0.6,2.3,1.3,3.5,2.1c0.9,0.6,1.8,1.2,2.7,1.9l59-23.1V0L0.4,145z"/>
</g>
<path class="st0" d="M247.8,212.4c-2.3-2.8-10.4-3.4-11.2-3.4s-5.9,0-5.9,0s2.1-2.3,0-7.5s-12.9-18.9-14.7-20.4s-3.1-2.6-8.3-3.4
	c-5.2-0.8-17.1-2.8-18.6-2.8s-2.1-2.3-2.1-2.3v-1.8c0,0,5.4-0.8,7.5-2.1s6.2-3.9,6.5-4.9s2.9-10.3,2.9-11.1s1.3-2.3,1.3-2.3L205,146
	c0,0,5.7-3.6,6.2-7s0.5-5.7,0.5-5.7s11.4-1.5,11.4-5.9s-12.9-10.6-12.9-10.6s4.1-26.6-19.6-34.7c-23.8-8-41.1,12.7-41.1,12.7
	s-3.6,10.6-3.9,13.4c-0.3,2.9,0,9.6,0,9.6s-0.5,1-1.3,1s-1.5-0.3,0,2.1c1.6,2.3,4.9,4.7,4.9,4.7s0.8,2.1,0.8,3.1s0.3,5.7,0.3,7.8
	s0.3,5.4,1,7.2c0.8,1.8,1.5,3.4,2.1,4.1c0.5,0.8,0.8,1.8,0.8,1.8s0.3,4.9,0.3,5.7s-2.3,4.6-2.3,4.6s-5.4-1.6-5.9-0.2
	c-0.5,1.3-2.8,3.9-2.7,5.7s0,3.1,0,3.1s-14.1,5.7-16.7,7c-2.6,1.3-17.1,10.1-17.1,10.1s-4.7,11.9-5.7,14.7s-3.4,8.8-2.8,15.8
	c0.5,7,1.3,22.5,1.3,26.1s6,25.3,6,25.3l15.3,10.1l1.8,3.4l-6.7,22.2c0,0-2.3,13.2-2.9,15.5c-0.5,2.3,1.3,13.7,1.3,13.7
	s7.2,8.8,7.2,9.6c0,0.8,2.3,11.1,2.3,11.9s-1,7.7-1,7.7l-1.8,18.4c0,0-10.3,33.6-10.3,35.2s-2.1,27.9-3.1,31S105,469,104,473.6
	s-8.8,47-9.4,48.6c-0.2,0.7,1.7,1.4,3.6,2.3v-0.1c0.1-1.9,1.9-2.9,3.6-2c0.5,0.3,1.1,0.4,1.6,0.5c-0.2,0.7-0.5,1.3-0.8,2
	c-0.6,2.2-1.4,4.4-1.5,6.7c-0.1,2.1-0.7,4.1-1.4,6c-0.4,1.3-0.7,2.6-1.1,3.9c-0.7,2.7-1.4,5.4-3.1,7.7c-0.8,1-2.1,1.9-3.4,2.3l0,0
	c-0.3,0.3-0.7,0.5-1.1,0.7c-0.1,0.1-0.3,0.2-0.5,0.3c-0.7,0.3-1.4,0.7-2.1,1c-1.9,0.8-3.7,1.8-4.9,3.5c-1.6,2.2-1.9,4.7-1.6,7.4
	c0,0.4,0.2,1-0.3,1.2c-0.6,0.3-0.7,0.8-0.8,1.3c-0.4,1.6-0.3,3.2,0.2,4.8c0.3,0.9,0.9,1.6,1.7,1.9c1.3,0.6,2.7,1.1,4,1.5
	c3.8,1.1,7.5,2,11.4,2.5c2.1,0.3,4.2,0.5,6.3,0.6c1.5,0.1,3.1,0,4.7,0c0.4,0,0.7,0,1.1-0.1c1.9-0.4,3.7-0.8,5.6-1.2
	c1.2-0.3,2.3-0.8,3.3-1.5c0.8-0.5,1.1-1.1,1.1-2c0-0.7,0-1.5,0-2.2c-0.2-2.8,1.3-4.8,3-6.8c0.5-0.6,1.2-0.7,1.9-0.6
	c0.9,0.2,1.9,0.4,2.8,0.6c1.3,0.2,2.6-0.5,3.2-1.7c0.3,0,0.7,0,1,0c1,0.1,1.8-0.1,2-1.3c0.2,0,0.4-0.1,0.6-0.1
	c0.9,0,1.6-0.2,1.8-1.3c0-0.2,0.4-0.4,0.7-0.5c0.8-0.2,1.2-0.7,1.2-1.5c0.1-1.2,0.2-2.4,0.2-3.5c0-2.1,0-4.3,0-6.4
	c0-0.7-0.2-1.3-0.8-1.7c0.1-0.2,0.1-0.5,0.2-0.7c-0.2-0.5,0-1,0-1.5c0.3-1.5,0.1-3.2-0.2-4.7c-0.1-0.7-0.3-1.4-0.4-2
	c0,0.1-0.1,0.2-0.1,0.3c-0.6-1.4-1.5-2.6-1.8-4c-0.1-0.6,0.2-1.3,0.3-1.9c0.1-0.5,0.3-1,0.5-1.5c0.9-0.1,1.8-0.3,2.7-0.5
	c0.7-0.1,1.4,0,1.9,0.3c1.2-4.9,2.2-11.3,2.1-11.9c-0.2-1.5,1.3-20.4,0.7-25.3s0.4-15.8,0.4-15.8s3.3-14.6,3.4-15.1
	c0.9-4.6-0.2-15.9,2.7-18.3c2.9-2.3,7.8-21.1,7.8-21.1s6.2-10,8.5-16.8c-1.5,7.6-4.4,23.6-4.6,24.4c-0.4,1.2,0.9,15.5,0.5,18.6
	s-2.4,9.3-2,13.5c0.4,4.3-1,10.7-1,14.2s2,9.3,2,13.2c0,3.9-2.4,13.4-2.4,13.4l0.2,29.7c0,0,0.6,0.9,1.1,2.2c0.7,0.2,1.3,0.4,2,0.7
	c0.3,0.1,0.5,0.2,0.7,0.4c1.1-0.4,2.4-0.8,3.6-1c0,1,0.3,1.9,0.8,2.9c0,0.1,0,0.1,0.1,0.2c0.7,1.7,0.8,3.3-0.3,5
	c-0.4,0.6-0.6,1.2-0.9,1.8c-0.1,0-0.1,0-0.2,0c-0.1,0.3-0.3,0.6-0.4,0.9c0,0.1-0.1,0.1-0.1,0.2c-0.1,0.3-0.1,0.6-0.2,0.9
	c0,0.1,0,0.2,0,0.3c0,0.8,0,1.6-0.2,2.4c0,0.5,0,1,0,1.4v0.8l0.1-0.1c0.3,1.4,0.3,1.4-0.2,2.8c-0.1,0.3-0.1,0.6-0.1,0.9
	c-0.1,1.3-0.1,2.6,0,3.8c0.1,1.7,0,3.4,0,5.1c0,1.7,0.3,2.2,1.9,2.8c0.1,1.5,1.2,1.6,2.4,1.7c0.2,1.1,1,1.3,1.9,1.3
	c0.5,0,0.9,0,1.2,0c0.4,0.6,0.6,1,0.9,1.2c0.8,0.5,1.7,0.7,2.7,0.5c0.8-0.2,1.7-0.4,2.5-0.5c0.6-0.1,1.2-0.1,1.7,0.5
	c0.7,0.9,1.6,1.8,2.2,2.7c0.9,1.2,1.1,2.7,0.9,4.1c-0.4,3.1,0.2,4.2,3.1,5.3c0.1,0.1,0.3,0.1,0.4,0.1c1.3,0.3,2.6,0.7,3.9,1
	c1.5,0.4,3,0.6,4.5,0.6c2.2-0.1,4.4-0.1,6.5-0.2c1.7-0.1,3.4-0.2,5-0.6c3.1-0.6,6.1-1.3,9.1-2.1c1.7-0.5,3.4-1.2,5.1-1.9
	c0.5-0.2,1.1-0.7,1.3-1.3c0.8-1.8,1-3.7,0.3-5.6c-0.2-0.4-0.5-0.7-0.7-1.1c-0.1,0-0.1,0-0.2,0c0-1,0-1.9,0-2.9c0-4.3-2.1-7-5.8-8.8
	c-0.9-0.4-1.8-0.9-2.7-1.2c-0.2-0.1-0.4-0.2-0.5-0.3l0,0c-0.5-0.2-0.9-0.4-1.3-0.7l0,0c-2.3-0.9-3.8-2.6-4.7-4.8
	c-0.7-1.8-1.1-3.7-1.7-5.6c-0.4-1.5-0.9-3.1-1.4-4.6c-0.6-1.7-0.9-3.4-1-5.2c-0.1-1.5-0.3-3-0.9-4.4c-0.1-0.2-0.1-0.5-0.2-0.8
	c1.2,0.1,2.3,0.4,3.3,1.1l0.1,0.1c0.6-0.6,1.2-1.2,1.8-1.7c0.4-0.5,0.8-1.1,1.2-1.7l0.9-6.6c0,0,2.3-3,2.3-4.2s-1.2-27.9-2.3-27.7
	c-1.2,0.1-1.5-9.2-1.5-9.2s-1.9-14.4-1.2-17.8c0.8-3.5,2.9-13.4,1-20.4s2.9-34.7,2.9-34.7s5.4-15.5,5.8-16.7c0.4-1.1,5-21.7,5-22.9
	c0-1.2-2.7-30.3-1.9-31.8c0.8-1.6-1.5-26-1.5-26l-3.9-8.2l11-0.6C229.4,275.1,247.3,214.6,247.8,212.4z"/>
<path class="st0" d="M431.5,190.6c0,0-12.7-11.3-20.1-9.3l-2.3,14c-2.1-2.6-4.9-16.6-11.6-19.9c-6.7-3.4-12.2-5.2-12.2-5.2h-8.8
	l-5.2-2.8l-8.3-1.8c0,0-3.1-3.6-3.4-4.4c-0.3-0.8,0-7.2,0-7.2H357c0,0,2.3-7.2,2.1-8c-0.3-0.8-2.1-3.9-2.1-3.9l-1.3-3.4
	c0,0,4.6-3.3,4.9-7.2c0.3-3.9,0.3-8.3-0.3-9c-0.5-0.8-2.1-2.3-2.1-2.3l2.6-2.1c0,0-11.9-28.7-26.6-32.8
	c-14.7-4.1-30.8,1.5-34.4,11.9c-3.6,10.3-5.7,18.6-5.2,25.6s1,8.5,1,8.5s1.8,2.6,3.1,3.6c1.3,1.1,1.3,1.1,1.3,1.1s-0.8,2.2-0.8,3.7
	s2.1,4.6,3.1,6.1s2.6,3.6,4.4,3.9c1.8,0.3,1.8,0.3,1.8,0.3l2.1,2.8c0,0,0.8,2.6,1.3,4.1s1.3,3.1,1.3,3.1s-2.3,0.5-2.1,2.1
	c0.3,1.6,0.5,6.5,0.5,6.5s-3.9,1.8-7.8,4.9c-3.9,3.1-23.3,11.9-24.3,13.7s-2.3,7.2-2.6,10.3c-0.3,3.1-1.6,9-1.8,10.6
	c-0.3,1.5,0,2.3,0,3.4c0,1,1.7,13.5,1.7,13.5l-11,0.7l-10.9,89.9c0,0,12.6,1.3,28.5,0.5c0,0-6.5,12.7-6.5,15.8
	c0,3.1-4.7,6.6-1.9,8.1c2.7,1.5,7.8,2.7,7.8,2.7s3.1-1.9,2.3,1.2c-0.8,3.1-1.9,7.4-1.5,11.2c0.4,3.9-0.4,5.8,1.2,11.2
	c1.5,5.4,0,14.4,0,16.3s0.4,7.8,0.4,7.8s-7.4,20.2-7,24.8c0.4,4.6-0.8,12.4-1.2,20.2c-0.4,7.8,0.8,16.7,0.8,19.8
	c0,3.1-2.3,12.8-2.7,17.4c-0.4,4.7-3.1,9.7-3.5,14c-0.4,4.2-1.5,19.8-2.3,22.5s-3.1,7.7-3.5,12c-0.1,0.9-0.3,2-0.7,3
	c0.4,0.9,0.6,2,0.4,3.2c0.3,1.3,1.5,3.3,2.4,5.2c0.7,0,1.4,0.3,1.8,1.2c0.8,1.7,2.2,2.7,3.9,3.3c-0.2,0.8-0.6,1.6-0.9,2.4
	c-0.6,2.2-1.4,4.4-1.5,6.7c-0.1,2.1-0.7,4.1-1.4,6c-0.4,1.3-0.7,2.6-1.1,3.9c-0.7,2.7-1.4,5.4-3.1,7.7c-0.8,1-2.1,1.9-3.4,2.3l0,0
	c-0.3,0.3-0.7,0.5-1.1,0.7c-0.1,0.1-0.3,0.2-0.5,0.3c-0.7,0.3-1.4,0.7-2.1,1c-1.9,0.8-3.7,1.8-4.9,3.5c-1.6,2.2-1.9,4.7-1.6,7.4
	c0,0.4,0.2,1-0.3,1.2c-0.6,0.3-0.7,0.8-0.8,1.3c-0.4,1.6-0.3,3.2,0.2,4.8c0.3,0.9,0.9,1.6,1.7,1.9c1.3,0.6,2.7,1.1,4,1.5
	c3.8,1.1,7.5,2,11.4,2.5c2.1,0.3,4.2,0.5,6.3,0.6c1.5,0.1,3.1,0,4.7,0c0.4,0,0.7,0,1.1-0.1c1.9-0.4,3.7-0.8,5.6-1.2
	c1.2-0.3,2.3-0.8,3.3-1.5c0.8-0.5,1.1-1.1,1.1-2c0-0.7,0-1.5,0-2.2c-0.2-2.8,1.3-4.8,3-6.8c0.5-0.6,1.2-0.7,1.9-0.6
	c0.9,0.2,1.9,0.4,2.8,0.6c1.3,0.2,2.6-0.5,3.2-1.7c0.3,0,0.7,0,1,0c1,0.1,1.8-0.1,2-1.3c0.2,0,0.4-0.1,0.6-0.1
	c0.9,0,1.6-0.2,1.8-1.3c0-0.2,0.4-0.4,0.7-0.5c0.8-0.2,1.2-0.7,1.2-1.5c0.1-1.2,0.2-2.4,0.2-3.5c0-2.1,0-4.3,0-6.4
	c0-0.7-0.2-1.3-0.8-1.7c0.1-0.2,0.1-0.5,0.2-0.7c-0.2-0.5,0-1,0-1.5c0.3-1.5,0.1-3.2-0.2-4.7c-0.1-0.7-0.3-1.4-0.4-2
	c0,0.1-0.1,0.2-0.1,0.3c-0.6-1.4-1.5-2.6-1.8-4c-0.1-0.6,0.2-1.3,0.3-1.9c0.3-1.1,0.7-2.2,1-3.4c0.1-0.7,0.1-1.4-0.1-2.1
	c-0.5-1.7-1.1-3.3-1.8-4.9c0.4-0.3,0.8-0.4,1.3-0.5c0.3,0,0.5-0.1,0.8-0.1c0.5-0.1,0.9-0.3,1.4-0.5c-0.2-6.4-0.2-12,0.4-12.4
	c3.5-2.3,5.8-2.7,5.4-10.1c-0.4-7.4,1.2-19.4,2.7-25.2c1.5-5.8,5-8.5,5.4-15.1s5.4-16.7,5-20.2s2.7-17.5,2.7-18.6
	c0-1.2-0.8-14.7,1.9-19.8c2.7-5.1,5.4-24,5.4-24l7,11.2c0,0,1.2,6.6,3.5,8.9s3.5,6.2,3.9,10.5s-0.4,15.1,0.8,19
	c1.2,3.9,3.9,11.3,3.9,12.8s-2.3,7-1.5,14s0,13.6,0.8,15.9s4.3,17.4,4.3,17.4s-2.7,10.5-2.7,12.8c0,2.4-0.4,8.9-1.2,12.4l0,0
	c-0.2,4.4,0.2,8.9,0.3,13.3c1.4,0.2,2.8,0.2,4.2,0.2c1.5,0,3-0.1,4.5-0.2c-0.6,1.9-0.6,3.8,0.4,5.8c0,0.1,0,0.1,0.1,0.2
	c0.7,1.7,0.8,3.3-0.3,5c-0.4,0.6-0.6,1.2-0.9,1.8c-0.1,0-0.1,0-0.2,0c-0.1,0.3-0.3,0.6-0.4,0.9c0,0.1-0.1,0.1-0.1,0.2
	c-0.1,0.3-0.1,0.6-0.2,0.9c0,0.1,0,0.2,0,0.3c0,0.8,0,1.6-0.2,2.4c0,0.5,0,1,0,1.4v0.8l0.1-0.1c0.3,1.4,0.3,1.4-0.2,2.8
	c-0.1,0.3-0.1,0.6-0.1,0.9c-0.1,1.3-0.1,2.6,0,3.8c0.1,1.7,0,3.4,0,5.1c0,1.7,0.3,2.2,1.9,2.8c0.1,1.5,1.2,1.6,2.4,1.7
	c0.2,1.1,1,1.3,1.9,1.3c0.5,0,0.9,0,1.2,0c0.4,0.6,0.6,1,0.9,1.2c0.8,0.5,1.7,0.7,2.7,0.5c0.8-0.2,1.7-0.4,2.5-0.5
	c0.6-0.1,1.2-0.1,1.7,0.5c0.7,0.9,1.6,1.8,2.2,2.7c0.9,1.2,1.1,2.7,0.9,4.1c-0.4,3.1,0.2,4.2,3.1,5.3c0.1,0.1,0.3,0.1,0.4,0.1
	c1.3,0.3,2.6,0.7,3.9,1c1.5,0.4,3,0.6,4.5,0.6c2.2-0.1,4.4-0.1,6.5-0.2c1.7-0.1,3.4-0.2,5-0.6c3.1-0.6,6.1-1.3,9.1-2.1
	c1.7-0.5,3.4-1.2,5.1-1.9c0.5-0.2,1.1-0.7,1.3-1.3c0.8-1.8,1-3.7,0.3-5.6c-0.2-0.4-0.5-0.7-0.7-1.1c-0.1,0-0.1,0-0.2,0
	c0-1,0-1.9,0-2.9c0-4.3-2.1-7-5.8-8.8c-0.9-0.4-1.8-0.9-2.7-1.2c-0.2-0.1-0.4-0.2-0.5-0.3l0,0c-0.5-0.2-0.9-0.4-1.3-0.7l0,0
	c-2.3-0.9-3.8-2.6-4.7-4.8c-0.7-1.8-1.1-3.7-1.7-5.6c-0.4-1.5-0.9-3.1-1.4-4.6c-0.6-1.7-0.9-3.4-1-5.2c-0.1-1.5-0.3-3-0.9-4.4
	c-0.2-0.5-0.1-1.1-0.3-1.6c-0.1-0.2-0.1-0.4-0.2-0.6c1.8,0,3.6,0,5.4,0.1c0.1,0,0.2,0,0.3,0c0-2.8,0.1-6.1,0-7.8
	c-0.4-4.9,1.2-16.6,1.2-19s-0.4-8.4-1.2-18c-0.8-9.6-1.5-20.8-1.5-20.8s1.2-21.3,1.2-23.3c0-1.9-5.1-14-4.3-15.5
	c0.8-1.5-1.2-15.1,0-20.5s2.7-11.6,1.6-14.7c-1.2-3.1-2-7.4-1.6-11.2c0.4-3.9,1.9-8.1,0-14.7s-2.3-12.8-3.5-16.7
	c-1.2-3.9-1.9-15.5-1.9-15.5l5.4-0.4v-5c0,0-1.5-2.7-2.3-7s-0.8-9.3-0.8-13.6c0-4.3-0.4-8.1-0.4-9.3c0-1.2-1.2-18.2-1.2-19.4
	c0-1.2,4.6-14.4,4.6-14.4l8.9-7.4c0,0,9.3-2.7,10.1-3.9c0.8-1.2,8.9-8.1,8.9-8.1s-1.9-12-1.9-13.2s-2.3-5.1-2.3-5.1l-4.3-6.2
	l8.5-26.4L431.5,190.6z"/>
</svg>
